<mxfile host="app.diagrams.net" agent="Mozilla/5.0 (Windows NT 10.0; Win64; x64) AppleWebKit/537.36 (KHTML, like Gecko) Chrome/132.0.0.0 Safari/537.36 OPR/117.0.0.0" version="26.2.3">
  <diagram name="Página-1" id="EEo0jqu3HSmZR2zbv4zZ">
    <mxGraphModel dx="1003" dy="542" grid="1" gridSize="10" guides="1" tooltips="1" connect="1" arrows="1" fold="1" page="1" pageScale="1" pageWidth="827" pageHeight="1169" math="0" shadow="0">
      <root>
        <mxCell id="0" />
        <mxCell id="1" parent="0" />
        <object label="Usuário" id="R9ApCiRIu5O-z13biGFn-92">
          <mxCell style="shape=umlActor;verticalLabelPosition=bottom;verticalAlign=top;html=1;outlineConnect=0;" vertex="1" parent="1">
            <mxGeometry x="305" y="350" width="50" height="80" as="geometry" />
          </mxCell>
        </object>
        <mxCell id="R9ApCiRIu5O-z13biGFn-93" value="" style="endArrow=none;html=1;rounded=0;entryX=0;entryY=1;entryDx=0;entryDy=0;entryPerimeter=0;exitX=0.634;exitY=0.028;exitDx=0;exitDy=0;exitPerimeter=0;" edge="1" parent="1" target="R9ApCiRIu5O-z13biGFn-92" source="R9ApCiRIu5O-z13biGFn-94">
          <mxGeometry width="50" height="50" relative="1" as="geometry">
            <mxPoint x="325" y="510" as="sourcePoint" />
            <mxPoint x="415" y="450" as="targetPoint" />
          </mxGeometry>
        </mxCell>
        <mxCell id="R9ApCiRIu5O-z13biGFn-94" value="Criar conta" style="rounded=1;whiteSpace=wrap;html=1;" vertex="1" parent="1">
          <mxGeometry x="230" y="510" width="95" height="50" as="geometry" />
        </mxCell>
        <mxCell id="R9ApCiRIu5O-z13biGFn-95" value="Editar perfil" style="rounded=1;whiteSpace=wrap;html=1;" vertex="1" parent="1">
          <mxGeometry x="395" y="450" width="70" height="40" as="geometry" />
        </mxCell>
        <mxCell id="R9ApCiRIu5O-z13biGFn-96" value="" style="endArrow=none;html=1;rounded=0;exitX=0;exitY=0.75;exitDx=0;exitDy=0;" edge="1" parent="1" source="R9ApCiRIu5O-z13biGFn-95">
          <mxGeometry width="50" height="50" relative="1" as="geometry">
            <mxPoint x="335" y="520" as="sourcePoint" />
            <mxPoint x="355" y="440" as="targetPoint" />
          </mxGeometry>
        </mxCell>
        <mxCell id="R9ApCiRIu5O-z13biGFn-99" value="Criar desafio fitness" style="rounded=1;whiteSpace=wrap;html=1;" vertex="1" parent="1">
          <mxGeometry x="395" y="280" width="80" height="40" as="geometry" />
        </mxCell>
        <mxCell id="R9ApCiRIu5O-z13biGFn-100" value="" style="endArrow=none;html=1;rounded=0;" edge="1" parent="1" target="R9ApCiRIu5O-z13biGFn-92">
          <mxGeometry width="50" height="50" relative="1" as="geometry">
            <mxPoint x="390" y="300" as="sourcePoint" />
            <mxPoint x="375" y="410" as="targetPoint" />
            <Array as="points">
              <mxPoint x="370" y="320" />
            </Array>
          </mxGeometry>
        </mxCell>
        <mxCell id="R9ApCiRIu5O-z13biGFn-101" value="Participar de desafio" style="rounded=1;whiteSpace=wrap;html=1;" vertex="1" parent="1">
          <mxGeometry x="250" y="240" width="80" height="40" as="geometry" />
        </mxCell>
        <mxCell id="R9ApCiRIu5O-z13biGFn-102" value="" style="endArrow=none;html=1;rounded=0;exitX=0.5;exitY=1;exitDx=0;exitDy=0;" edge="1" parent="1" source="R9ApCiRIu5O-z13biGFn-101" target="R9ApCiRIu5O-z13biGFn-92">
          <mxGeometry width="50" height="50" relative="1" as="geometry">
            <mxPoint x="425" y="400" as="sourcePoint" />
            <mxPoint x="375" y="410" as="targetPoint" />
          </mxGeometry>
        </mxCell>
        <mxCell id="R9ApCiRIu5O-z13biGFn-103" value="Visualizar feed de atividade" style="rounded=1;whiteSpace=wrap;html=1;" vertex="1" parent="1">
          <mxGeometry x="150" y="310" width="80" height="40" as="geometry" />
        </mxCell>
        <mxCell id="R9ApCiRIu5O-z13biGFn-104" value="" style="endArrow=none;html=1;rounded=0;exitX=1;exitY=0.75;exitDx=0;exitDy=0;" edge="1" parent="1" source="R9ApCiRIu5O-z13biGFn-103" target="R9ApCiRIu5O-z13biGFn-92">
          <mxGeometry width="50" height="50" relative="1" as="geometry">
            <mxPoint x="300" y="290" as="sourcePoint" />
            <mxPoint x="325" y="360" as="targetPoint" />
          </mxGeometry>
        </mxCell>
        <mxCell id="R9ApCiRIu5O-z13biGFn-105" value="Histórico de atividades" style="rounded=1;whiteSpace=wrap;html=1;" vertex="1" parent="1">
          <mxGeometry x="420" y="110" width="90" height="40" as="geometry" />
        </mxCell>
        <object label="m-Gym" id="R9ApCiRIu5O-z13biGFn-108">
          <mxCell style="shape=umlActor;verticalLabelPosition=bottom;verticalAlign=top;html=1;outlineConnect=0;" vertex="1" parent="1">
            <mxGeometry x="660" y="100" width="50" height="80" as="geometry" />
          </mxCell>
        </object>
        <mxCell id="R9ApCiRIu5O-z13biGFn-109" value="" style="endArrow=none;html=1;rounded=0;exitX=1;exitY=0.5;exitDx=0;exitDy=0;entryX=0;entryY=0.3333333333333333;entryDx=0;entryDy=0;entryPerimeter=0;" edge="1" parent="1" source="R9ApCiRIu5O-z13biGFn-105" target="R9ApCiRIu5O-z13biGFn-108">
          <mxGeometry width="50" height="50" relative="1" as="geometry">
            <mxPoint x="610" y="370" as="sourcePoint" />
            <mxPoint x="660" y="320" as="targetPoint" />
          </mxGeometry>
        </mxCell>
        <mxCell id="R9ApCiRIu5O-z13biGFn-110" value="Notifica mensagens" style="rounded=1;whiteSpace=wrap;html=1;" vertex="1" parent="1">
          <mxGeometry x="490" y="190" width="90" height="40" as="geometry" />
        </mxCell>
        <mxCell id="R9ApCiRIu5O-z13biGFn-111" value="" style="endArrow=none;html=1;rounded=0;entryX=0;entryY=1;entryDx=0;entryDy=0;entryPerimeter=0;exitX=1;exitY=0.25;exitDx=0;exitDy=0;" edge="1" parent="1" source="R9ApCiRIu5O-z13biGFn-110" target="R9ApCiRIu5O-z13biGFn-108">
          <mxGeometry width="50" height="50" relative="1" as="geometry">
            <mxPoint x="610" y="360" as="sourcePoint" />
            <mxPoint x="660" y="320" as="targetPoint" />
          </mxGeometry>
        </mxCell>
        <mxCell id="R9ApCiRIu5O-z13biGFn-113" value="Rankeia usuários" style="rounded=1;whiteSpace=wrap;html=1;" vertex="1" parent="1">
          <mxGeometry x="680" y="240" width="90" height="40" as="geometry" />
        </mxCell>
        <mxCell id="R9ApCiRIu5O-z13biGFn-114" value="" style="endArrow=none;html=1;rounded=0;exitX=0.5;exitY=0;exitDx=0;exitDy=0;entryX=1;entryY=1;entryDx=0;entryDy=0;entryPerimeter=0;" edge="1" parent="1" source="R9ApCiRIu5O-z13biGFn-113" target="R9ApCiRIu5O-z13biGFn-108">
          <mxGeometry width="50" height="50" relative="1" as="geometry">
            <mxPoint x="610" y="370" as="sourcePoint" />
            <mxPoint x="660" y="320" as="targetPoint" />
          </mxGeometry>
        </mxCell>
        <mxCell id="R9ApCiRIu5O-z13biGFn-116" value="Registrar Atividades" style="rounded=1;whiteSpace=wrap;html=1;" vertex="1" parent="1">
          <mxGeometry x="430" y="360" width="90" height="40" as="geometry" />
        </mxCell>
        <mxCell id="R9ApCiRIu5O-z13biGFn-117" value="" style="endArrow=none;html=1;rounded=0;exitX=1;exitY=0.3333333333333333;exitDx=0;exitDy=0;exitPerimeter=0;entryX=0;entryY=0.5;entryDx=0;entryDy=0;" edge="1" parent="1" source="R9ApCiRIu5O-z13biGFn-92" target="R9ApCiRIu5O-z13biGFn-116">
          <mxGeometry width="50" height="50" relative="1" as="geometry">
            <mxPoint x="610" y="370" as="sourcePoint" />
            <mxPoint x="660" y="320" as="targetPoint" />
          </mxGeometry>
        </mxCell>
        <mxCell id="R9ApCiRIu5O-z13biGFn-118" value="Seleção de plano" style="rounded=1;whiteSpace=wrap;html=1;" vertex="1" parent="1">
          <mxGeometry x="150" y="430" width="80" height="40" as="geometry" />
        </mxCell>
        <mxCell id="R9ApCiRIu5O-z13biGFn-119" value="" style="endArrow=none;html=1;rounded=0;exitX=0.853;exitY=0.015;exitDx=0;exitDy=0;exitPerimeter=0;" edge="1" parent="1" source="R9ApCiRIu5O-z13biGFn-118" target="R9ApCiRIu5O-z13biGFn-92">
          <mxGeometry width="50" height="50" relative="1" as="geometry">
            <mxPoint x="610" y="370" as="sourcePoint" />
            <mxPoint x="660" y="320" as="targetPoint" />
          </mxGeometry>
        </mxCell>
      </root>
    </mxGraphModel>
  </diagram>
</mxfile>
